<?xml version="1.0" encoding="UTF-8"?>
<svg xmlns="http://www.w3.org/2000/svg" version="1.1" viewBox="0 0 50 50">
  <!-- Generator: Adobe Illustrator 29.0.1, SVG Export Plug-In . SVG Version: 2.1.0 Build 192)  -->
  <defs>
    <style>
      .st0 {
        fill: #fff;
      }
    </style>
  </defs>
  <g id="Camada_2">
    <rect class="st0" x="-.43" y="-3" width="51.86" height="57"/>
  </g>
  <g id="Camada_1">
    <g>
      <path d="M11.83,34.53v-14.92c.2-.95.94-1.7,1.93-1.8,7.62.05,15.26-.1,22.87.08.83.21,1.47,1.01,1.54,1.85v14.56c-.04,1.09-.94,1.99-2.03,2.03H13.76c-.91-.06-1.82-.9-1.93-1.8ZM24.47,20.92c-4.2.35-6.83,4.77-5.13,8.65,2.02,4.6,8.48,4.97,10.99.61,2.5-4.33-.91-9.67-5.86-9.26ZM33.68,20.91c-.96.2-.68,1.73.34,1.52.96-.2.68-1.73-.34-1.52Z"/>
      <path d="M28.2,16.27h-6.74v-1.41c0-.07.14-.35.18-.44.24-.46.67-.68,1.18-.72,1.35-.1,2.84.07,4.21.02.48.02,1.17.68,1.17,1.14v1.41Z"/>
      <path d="M24.58,22.46c3.74-.33,6.3,3.68,4.42,6.95s-6.68,2.99-8.21-.41c-1.31-2.9.62-6.26,3.79-6.54ZM24.84,24.1c-1.48.07-2.81,1.39-2.82,2.89,0,.64.67,1.09,1.23.72.47-.31.2-1.13.75-1.67.45-.44.81-.29,1.3-.45.76-.25.61-1.54-.46-1.49Z"/>
    </g>
    <path class="st0" d="M25.47,18.96l1.01.14c5.54,1.03,8.38,7.42,5.3,12.23-2.29,3.59-6.95,4.77-10.7,2.72l-3.69.99-.44-.39v-.03l1-3.69c-.39-.77-.71-1.58-.87-2.43l-.13-1.01c.01-.31-.02-.63,0-.94.22-4.02,3.55-7.35,7.57-7.57h.94ZM18.15,33.85l3.03-.82c1.82,1.03,3.83,1.37,5.86.77,4.65-1.37,6.56-6.99,3.72-10.95-3.32-4.62-10.48-3.63-12.43,1.7-.77,2.12-.47,4.33.64,6.26l-.82,3.03Z"/>
    <path d="M28,29s-.18-3,.41-3.5,1.21,1.27,1.21,1.27c0,0-.62,2.23-1.62,2.23Z"/>
  </g>
</svg>